<?xml version="1.0" encoding="utf-8"?>
<!-- Generator: Adobe Illustrator 14.0.0, SVG Export Plug-In . SVG Version: 6.00 Build 43363)  -->
<!DOCTYPE svg PUBLIC "-//W3C//DTD SVG 1.1//EN" "http://www.w3.org/Graphics/SVG/1.1/DTD/svg11.dtd">
<svg version="1.1" id="Layer_1" xmlns="http://www.w3.org/2000/svg" xmlns:xlink="http://www.w3.org/1999/xlink" x="0px" y="0px"
	 width="25.572px" height="25.575px" viewBox="0 0 25.572 25.575" enable-background="new 0 0 25.572 25.575" xml:space="preserve">
<g>
	<g>
		<path fill-rule="evenodd" clip-rule="evenodd" fill="#D0D0D0" d="M22.977,2.602c-3.465-3.469-9.078-3.469-12.542,0
			C7.211,5.833,6.992,10.93,9.773,14.415L0,24.204l1.371,1.371l9.77-9.781c3.484,2.816,8.597,2.605,11.835-0.633
			C26.438,11.692,26.438,6.067,22.977,2.602L22.977,2.602z M21.734,13.915c-2.777,2.785-7.281,2.785-10.063,0
			c-2.777-2.782-2.777-7.293,0-10.075c2.781-2.781,7.285-2.781,10.063,0C24.512,6.622,24.512,11.133,21.734,13.915L21.734,13.915z
			 M21.734,13.915"/>
	</g>
</g>
</svg>
